<svg id="Calque_1" data-name="Calque 1" xmlns="http://www.w3.org/2000/svg" viewBox="0 0 979.46 149.25"><defs><style>.cls-1{fill:#fff;fill-rule:evenodd;}</style></defs><title>electron2</title><path class="cls-1" d="M206.34,120h53.93a2.83,2.83,0,1,0,0-5.66H209.41V81.18h45a2.84,2.84,0,0,0,0-5.67h-45V43.06h50.27a2.83,2.83,0,0,0,0-5.66H206.34a3.13,3.13,0,0,0-3.07,3.07v76.46a3.13,3.13,0,0,0,3.07,3.07Zm94.2-3.07a3.12,3.12,0,0,0,3.07,3.07h49.2a2.83,2.83,0,0,0,0-5.66H306.67V40a3.07,3.07,0,1,0-6.13,0ZM394.85,120h53.93a2.83,2.83,0,1,0,0-5.66H397.92V81.18h45a2.84,2.84,0,0,0,0-5.67h-45V43.06h50.27a2.83,2.83,0,0,0,0-5.66H394.85a3.12,3.12,0,0,0-3.06,3.07v76.46a3.12,3.12,0,0,0,3.06,3.07Zm131.61,1.42c13.8,0,22.89-5.08,31.27-12.87a3,3,0,0,0,.94-2.12,3.08,3.08,0,0,0-2.95-3,3,3,0,0,0-2.12.94c-7.79,7.44-15.7,11.45-26.91,11.45-19.7,0-34.92-16.28-34.92-37.17v-.24c0-20.76,15-36.93,34.81-36.93,11.56,0,19.47,4.48,26.31,10.74a3.15,3.15,0,0,0,2.12.82A3.22,3.22,0,0,0,558.2,50,3.53,3.53,0,0,0,557,47.55C549,40.7,540.38,36,526.69,36c-23.83,0-41.3,19.36-41.3,42.72v.24c0,23.71,17.47,42.48,41.07,42.48Zm90.77-4a3.07,3.07,0,0,0,6.14,0V43.06H649.8a2.83,2.83,0,1,0,0-5.66h-59a2.83,2.83,0,1,0,0,5.66h26.43Zm71.78,0a3.07,3.07,0,1,0,6.14,0V85.78h27l25.37,33a3.4,3.4,0,0,0,2.71,1.65,3.34,3.34,0,0,0,3.19-3.18,3.45,3.45,0,0,0-1-2.13L729,84.72c13.93-1.89,24.19-9.8,24.19-23.6v-.24A21.8,21.8,0,0,0,747,45.54c-5-4.95-13.1-8.14-23.25-8.14H692.08A3.13,3.13,0,0,0,689,40.47Zm6.14-37.17V43.06h28.2c15,0,23.72,7,23.72,18.06v.23c0,11.92-10.27,18.88-24.08,18.88Zm135.14,41.19c25,0,41.65-20.18,41.65-42.72v-.24c0-22.53-16.4-42.48-41.41-42.48S788.87,56.16,788.87,78.7v.24c0,22.53,16.4,42.48,41.42,42.48Zm.24-5.55c-20.42,0-35.29-16.76-35.29-37.17v-.24c0-20.41,14.64-36.93,35-36.93s35.28,16.76,35.28,37.17v.24c0,20.41-14.63,36.93-35,36.93ZM911,117.52a3,3,0,0,0,5.9,0V46.37l56.75,72c.95,1.18,1.89,2,3.07,2h.47a2.52,2.52,0,0,0,2.48-2.59V39.88a2.95,2.95,0,1,0-5.9,0V109.5L918.12,38.82a3.82,3.82,0,0,0-3.07-1.77h-.95A3.11,3.11,0,0,0,911,40.11Z" transform="translate(-0.25 -0.09)"/><path class="cls-1" d="M48.83,32.17C29.32,28.62,13.9,32.33,7.76,43c-4.59,7.94-3.28,18.47,3.17,29.73a2,2,0,1,0,3.47-2C8.59,60.58,7.46,51.49,11.22,45c5.1-8.84,18.86-12.16,36.89-8.88a2,2,0,1,0,.72-3.93ZM21.08,86.4a125.35,125.35,0,0,0,29.81,23.54c28.3,16.33,58.42,20.7,73.26,10.58a2,2,0,1,0-2.25-3.31c-13.29,9.06-41.9,4.91-69-10.74A121.17,121.17,0,0,1,24,83.71a2,2,0,1,0-3,2.69Z" transform="translate(-0.25 -0.09)"/><path class="cls-1" d="M119.42,84c12.77-15.08,17.22-30.26,11.09-40.88-4.51-7.82-14-11.94-26.73-12.11a2,2,0,1,0,0,4c11.4.15,19.62,3.71,23.32,10.11,5.09,8.82,1.12,22.36-10.69,36.3A2,2,0,0,0,119.42,84ZM86.59,32.83A125.09,125.09,0,0,0,51,47C21.75,63.82,2.69,88.69,5.34,106.72a2,2,0,0,0,4-.59C7,90.13,25,66.56,53,50.42A120.77,120.77,0,0,1,87.43,36.75a2,2,0,1,0-.84-3.92Z" transform="translate(-0.25 -0.09)"/><path class="cls-1" d="M39.28,119.21c6.68,18.65,17.6,30.13,29.88,30.13,9,0,17.25-6.11,23.71-16.86a2,2,0,0,0-3.43-2.06c-5.8,9.66-12.94,14.92-20.28,14.92C59,145.34,49.22,135.1,43,117.87a2,2,0,1,0-3.76,1.34Zm61-3.64a125.5,125.5,0,0,0,5.31-37.07c0-33.13-11.59-61.7-28.11-69a2,2,0,0,0-1.63,3.65c14.74,6.55,25.74,33.65,25.74,65.38a121.68,121.68,0,0,1-5.13,35.87,2,2,0,1,0,3.82,1.2Z" transform="translate(-0.25 -0.09)"/><path class="cls-1" d="M137.94,113.61a9.58,9.58,0,1,0-9.58,9.57,9.57,9.57,0,0,0,9.58-9.57Zm-4,0a5.58,5.58,0,1,1-5.58-5.57,5.57,5.57,0,0,1,5.58,5.57Z" transform="translate(-0.25 -0.09)"/><path class="cls-1" d="M9.82,123.18a9.57,9.57,0,1,0-9.57-9.57,9.57,9.57,0,0,0,9.57,9.57Zm0-4a5.57,5.57,0,1,1,5.58-5.57,5.57,5.57,0,0,1-5.58,5.57Z" transform="translate(-0.25 -0.09)"/><path class="cls-1" d="M69.16,19.23a9.57,9.57,0,1,0-9.57-9.57,9.57,9.57,0,0,0,9.57,9.57Zm0-4a5.57,5.57,0,1,1,5.58-5.57,5.57,5.57,0,0,1-5.58,5.57Z" transform="translate(-0.25 -0.09)"/><path class="cls-1" d="M70.62,85.27A6.93,6.93,0,1,1,75.93,77,6.93,6.93,0,0,1,70.62,85.27Z" transform="translate(-0.25 -0.09)"/></svg>