<svg xmlns="http://www.w3.org/2000/svg" viewBox="0 0 48 48" width="48px" height="48px"><path fill="#4DB6AC" d="M39.989,12c0,0,0.999,23-15.816,32C7.012,35,8.011,12,8.011,12C16.006,12,24,4,24,4S30.995,12,39.989,12z"/><path fill="#00695C" d="M25.498 25.252c0-.405-.104-.712-.311-.92-.208-.207-.585-.422-1.132-.646-.998-.378-1.716-.821-2.153-1.329-.438-.509-.656-1.109-.656-1.802 0-.839.297-1.512.893-2.021.594-.508 1.35-.762 2.266-.762.611 0 1.155.129 1.634.387s.847.62 1.104 1.09c.257.47.386 1.003.386 1.6h-2.003c0-.465-.1-.819-.297-1.063-.199-.244-.484-.366-.858-.366-.351 0-.624.104-.82.312-.196.207-.294.486-.294.837 0 .273.109.521.328.741.219.222.605.45 1.162.688.971.351 1.676.781 2.115 1.292.44.511.66 1.16.66 1.948 0 .866-.275 1.543-.827 2.03S25.393 28 24.445 28c-.643 0-1.229-.132-1.757-.396s-.942-.643-1.241-1.135C21.149 25.977 21 25.396 21 24.726h2.017c0 .574.112.991.335 1.251s.588.39 1.094.39C25.146 26.366 25.498 25.995 25.498 25.252zM31.01 26.332h3.527V28H29v-9.953h2.01V26.332zM17.498 25.252c0-.405-.104-.712-.311-.92-.208-.207-.585-.422-1.132-.646-.998-.378-1.716-.821-2.153-1.329-.438-.509-.656-1.109-.656-1.802 0-.839.297-1.512.893-2.021.594-.508 1.35-.762 2.266-.762.611 0 1.155.129 1.634.387s.847.62 1.104 1.09c.257.47.386 1.003.386 1.6h-2.003c0-.465-.1-.819-.297-1.063-.199-.244-.484-.366-.858-.366-.351 0-.624.104-.82.312-.196.207-.294.486-.294.837 0 .273.109.521.328.741.219.222.605.45 1.162.688.971.351 1.676.781 2.115 1.292.44.511.66 1.16.66 1.948 0 .866-.275 1.543-.827 2.03S17.393 28 16.445 28c-.643 0-1.229-.132-1.757-.396s-.942-.643-1.241-1.135C13.149 25.977 13 25.396 13 24.726h2.017c0 .574.112.991.335 1.251s.588.39 1.094.39C17.146 26.366 17.498 25.995 17.498 25.252z"/></svg>