<svg xmlns="http://www.w3.org/2000/svg" viewBox="0 0 48 48" width="48px" height="48px"><path fill="#6D4C41" d="M26,24c1.421-0.072,2.702,0.008,3.96,0.109c1.252,0.107,2.462,0.248,3.654,0.383c1.193,0.135,2.364,0.271,3.559,0.365c1.201,0.1,2.4,0.152,3.827,0.143c-0.881,1.145-2.221,1.832-3.576,2.203c-1.369,0.367-2.789,0.428-4.152,0.269c-1.367-0.159-2.688-0.534-3.922-1.093C28.122,25.805,26.95,25.077,26,24z"/><path fill="#6D4C41" d="M25 23c1.711-.416 3.353-.627 4.979-.807 1.624-.17 3.225-.291 4.804-.413 1.578-.128 3.137-.241 4.666-.456C40.983 21.088 42.472 20.859 44 20c-.261.862-.886 1.588-1.57 2.188-.701.592-1.501 1.045-2.32 1.402-1.648.705-3.382 1.047-5.096 1.181-1.718.13-3.428.044-5.107-.228C28.23 24.256 26.57 23.817 25 23zM22 24c-.95 1.077-2.122 1.805-3.35 2.379-1.234.559-2.555.934-3.922 1.093-1.363.159-2.783.099-4.152-.269C9.221 26.832 7.881 26.145 7 25c1.427.01 2.626-.043 3.827-.143 1.194-.094 2.365-.23 3.559-.365 1.192-.135 2.402-.275 3.654-.383C19.298 24.008 20.579 23.928 22 24z"/><path fill="#6D4C41" d="M23,23c-1.57,0.817-3.23,1.256-4.906,1.543c-1.68,0.271-3.39,0.357-5.107,0.228c-1.714-0.134-3.447-0.476-5.096-1.181c-0.819-0.357-1.619-0.811-2.32-1.402C4.886,21.588,4.261,20.862,4,20c1.528,0.859,3.017,1.088,4.551,1.324c1.529,0.215,3.088,0.328,4.666,0.456c1.579,0.122,3.18,0.243,4.804,0.413C19.647,22.373,21.289,22.584,23,23z"/><path fill="#8D6E63" d="M24 22c2.028-.646 4.008-1.117 5.97-1.582 1.96-.457 3.896-.893 5.792-1.377 1.893-.491 3.755-1.014 5.508-1.74 1.748-.74 3.406-1.622 4.73-3.301-.045 1.081-.53 2.135-1.174 3.05-.658.911-1.501 1.675-2.403 2.309-1.819 1.267-3.863 2.06-5.919 2.588-2.063.523-4.161.776-6.255.806C28.155 22.765 26.056 22.595 24 22zM24 22c-2.056.595-4.155.765-6.249.752-2.094-.029-4.192-.282-6.255-.806-2.056-.528-4.1-1.321-5.919-2.588-.902-.634-1.745-1.397-2.403-2.309C2.53 16.135 2.045 15.081 2 14c1.324 1.679 2.982 2.561 4.73 3.301 1.753.727 3.615 1.249 5.508 1.74 1.896.484 3.832.92 5.792 1.377C19.992 20.883 21.972 21.354 24 22zM24 32.002c.621.582.943 1.166 1.176 1.75.22.582.322 1.166.324 1.75.002.582-.101 1.166-.32 1.75-.231.582-.555 1.166-1.18 1.75-.625-.584-.948-1.168-1.18-1.75-.22-.584-.322-1.168-.32-1.75.002-.584.104-1.168.324-1.75C23.057 33.168 23.379 32.584 24 32.002z"/><path fill="#8D6E63" d="M24,31c0.331,0.885,0.383,1.664,0.351,2.413c-0.044,0.743-0.198,1.446-0.446,2.114c-0.248,0.667-0.594,1.298-1.05,1.889C22.388,38,21.835,38.554,21,39.002c-0.335-0.887-0.388-1.668-0.354-2.416c0.044-0.743,0.198-1.445,0.45-2.111s0.598-1.297,1.054-1.887C22.617,32.002,23.169,31.449,24,31z"/><path fill="#8D6E63" d="M18,37.002c0.103-0.895,0.396-1.559,0.748-2.154c0.358-0.586,0.793-1.08,1.292-1.498c0.498-0.419,1.064-0.757,1.705-1.005c0.647-0.239,1.354-0.407,2.255-0.343c-0.1,0.896-0.393,1.561-0.745,2.155c-0.359,0.585-0.793,1.081-1.295,1.495c-0.501,0.416-1.066,0.754-1.708,1.002C19.604,36.893,18.897,37.061,18,37.002z"/><path fill="#8D6E63" d="M24,31c0.831,0.449,1.383,1.002,1.851,1.588c0.456,0.59,0.802,1.221,1.054,1.887s0.406,1.368,0.45,2.111c0.033,0.748-0.02,1.529-0.354,2.416c-0.835-0.448-1.388-1.002-1.854-1.586c-0.456-0.591-0.802-1.222-1.05-1.889c-0.248-0.668-0.402-1.371-0.446-2.114C23.617,32.664,23.669,31.885,24,31z"/><path fill="#8D6E63" d="M30,37.002c-0.897,0.061-1.604-0.109-2.253-0.347c-0.641-0.248-1.206-0.586-1.707-1.001c-0.502-0.415-0.936-0.911-1.295-1.496c-0.352-0.595-0.645-1.26-0.745-2.156c0.9-0.063,1.606,0.105,2.255,0.344c0.641,0.248,1.207,0.586,1.705,1.004c0.499,0.418,0.934,0.914,1.293,1.499C29.604,35.444,29.897,36.108,30,37.002z"/><g><path fill="#5D4037" d="M27 27c.773.154 1.28.43 1.711.742.419.318.736.684.971 1.092.235.406.382.856.442 1.359C30.187 30.711 30.132 31.231 30 32c-.806.063-1.396-.238-1.863-.535-.464-.318-.813-.707-1.061-1.146-.248-.438-.399-.927-.439-1.468C26.609 28.304 26.665 27.715 27 27zM21 27c.335.715.391 1.304.363 1.851-.04.541-.191 1.029-.439 1.468-.248.439-.597.828-1.061 1.146C19.396 31.762 18.806 32.063 18 32c-.132-.769-.187-1.289-.124-1.807.061-.503.207-.953.442-1.359.234-.408.552-.773.971-1.092C19.72 27.43 20.227 27.154 21 27z"/><path fill="#5D4037" d="M21 25c-.001.998-.392 1.828-.896 2.537-.519.703-1.198 1.277-1.977 1.684-.777.406-1.659.638-2.553.636C14.683 29.848 13.772 29.621 13 29c.767-.631 1.396-1.039 1.996-1.43.6-.379 1.161-.71 1.751-1.012.588-.305 1.199-.582 1.878-.848C19.313 25.447 20.041 25.205 21 25zM27 25c.959.205 1.688.447 2.375.711.679.266 1.29.543 1.878.848.59.302 1.151.633 1.751 1.012.6.391 1.229.799 1.996 1.43-.772.621-1.683.848-2.575.856-.894.002-1.775-.229-2.553-.636-.778-.406-1.458-.98-1.977-1.684C27.392 26.828 27.001 25.998 27 25z"/></g><g><path fill="#BCAAA4" d="M25 20c1.031-.643 1.978-1.09 2.895-1.514l2.598-1.178c.815-.39 1.567-.775 2.291-1.264C33.515 15.559 34.206 14.938 35 14c.455 1.142.228 2.506-.441 3.598-.668 1.099-1.699 1.916-2.785 2.422-1.093.513-2.254.753-3.4.768C27.228 20.785 26.075 20.599 25 20zM23 20c-1.075.599-2.228.785-3.373.787-1.146-.015-2.308-.255-3.4-.768-1.086-.506-2.117-1.323-2.785-2.422C12.772 16.506 12.545 15.142 13 14c.794.938 1.485 1.559 2.217 2.045.724.488 1.476.874 2.291 1.264l2.598 1.178C21.022 18.91 21.969 19.357 23 20z"/></g><g><path fill="#A1887F" d="M24,22c1.077-0.435,2.047-0.668,3.009-0.848c0.959-0.17,1.893-0.273,2.827-0.322c0.935-0.053,1.867-0.048,2.832,0.014c0.97,0.072,1.955,0.176,3.083,0.49c-0.767,0.883-1.711,1.439-2.693,1.836c-0.986,0.389-2.024,0.602-3.065,0.654s-2.089-0.05-3.105-0.324C25.874,23.213,24.87,22.791,24,22z"/><path fill="#A1887F" d="M26.334,22.668c0.838-0.148,1.455-0.17,2.036-0.141c0.572,0.038,1.082,0.127,1.568,0.277c0.488,0.146,0.95,0.354,1.438,0.637c0.489,0.294,0.996,0.637,1.624,1.227c-0.553,0.658-1.233,0.968-1.917,1.114c-0.687,0.136-1.384,0.089-2.027-0.11c-0.643-0.201-1.236-0.547-1.725-1.035C26.854,24.143,26.442,23.525,26.334,22.668z"/><path fill="#A1887F" d="M26.667 23.418c.788.108 1.32.334 1.783.6.452.27.81.588 1.097.949.289.361.5.769.652 1.24.154.486.229.999.302 1.793-.771.248-1.445.086-1.99-.146-.548-.246-.986-.604-1.319-1.03-.333-.426-.565-.92-.681-1.477C26.407 24.784 26.393 24.168 26.667 23.418zM23 22c2.153-1.098 4.296-2.01 6.42-2.936 2.125-.912 4.23-1.805 6.295-2.742 2.063-.941 4.088-1.914 6.01-3.051C43.645 12.127 45.458 10.859 47 9c-.398 2.438-2.063 4.547-3.877 6.171-1.855 1.634-3.975 2.888-6.169 3.884-2.199.993-4.487 1.733-6.818 2.248C27.8 21.795 25.424 22.123 23 22z"/><path fill="#A1887F" d="M24,22c-0.87,0.791-1.874,1.213-2.887,1.5c-1.017,0.274-2.064,0.377-3.105,0.324s-2.079-0.266-3.065-0.654c-0.982-0.396-1.927-0.953-2.693-1.836c1.128-0.314,2.113-0.418,3.083-0.49c0.965-0.062,1.897-0.066,2.832-0.014c0.935,0.049,1.868,0.152,2.827,0.322C21.953,21.332,22.923,21.565,24,22z"/><path fill="#A1887F" d="M21.666,22.668c-0.108,0.857-0.521,1.475-0.998,1.969c-0.488,0.488-1.082,0.834-1.725,1.035c-0.644,0.199-1.341,0.246-2.027,0.11c-0.684-0.146-1.364-0.456-1.917-1.114c0.628-0.59,1.135-0.933,1.624-1.227c0.488-0.283,0.95-0.49,1.438-0.637c0.486-0.15,0.996-0.239,1.568-0.277C20.211,22.498,20.828,22.52,21.666,22.668z"/><path fill="#A1887F" d="M21.333 23.418c.274.75.26 1.366.156 1.929-.115.557-.348 1.051-.681 1.477-.333.427-.771.784-1.319 1.03-.545.232-1.22.395-1.99.146.072-.794.147-1.307.302-1.793.152-.472.363-.879.652-1.24.287-.361.645-.68 1.097-.949C20.013 23.752 20.545 23.526 21.333 23.418zM25 22c-2.424.123-4.8-.205-7.136-.697-2.331-.515-4.619-1.255-6.818-2.248-2.194-.996-4.313-2.25-6.169-3.884C3.063 13.547 1.398 11.438 1 9c1.542 1.859 3.355 3.127 5.275 4.271 1.922 1.137 3.947 2.109 6.01 3.051 2.064.938 4.17 1.83 6.295 2.742C20.704 19.99 22.847 20.902 25 22z"/></g><path fill="#6D4C41" d="M28,26c0,4.909-2,8-4,8c-2,0.002-4-3.091-4-8s1.791-10,4-10S28,21.091,28,26z"/><path fill="#4E342E" d="M26,17.997c0,1.104-0.896-0.001-2-0.001l0,0c-1.104,0-2,1.105-2,0.001v-0.999c0-1.104,0.896-2,2-2l0,0c1.104,0,2,0.896,2,2V17.997z"/><path fill="#FFEB3B" d="M25,17.998c0,0.553-1,2-1,2s-1-1.447-1-2s0.447-1,1-1S25,17.445,25,17.998z"/></svg>