<svg xmlns="http://www.w3.org/2000/svg" viewBox="0 0 48 48" width="48px" height="48px"><path fill="#3F51B5" d="M42,13c0,0.553-0.447,1-1,1H7c-0.552,0-1-0.447-1-1V7c0-0.553,0.448-1,1-1h34c0.553,0,1,0.447,1,1V13z"/><path fill="#BBDEFB" d="M6 11H42V42H6z"/><path fill="#1976D2" d="M15 25h-1.976v-7.536l-2.358.729V16.6l4.122-1.477H15V25zM26 38h-1.976v-7.659l-2.358.729v-1.593L25.788 28H26V38zM37 25h-1.976v-7.536l-2.358.729V16.6l4.122-1.477H37V25zM39 33.748c0 1.376-.297 2.429-.889 3.158C37.518 37.636 36.65 38 35.508 38c-1.129 0-1.992-.357-2.59-1.073S32.014 35.186 32 33.851v-1.832c0-1.39.3-2.219.9-2.938.6-.72 1.464-1.08 2.592-1.08 1.129 0 1.992.356 2.59 1.07.598.713.904 1.737.918 3.072V33.748zM37 31.96c0-.825-.174-1.427-.408-1.803s-.602-.564-1.1-.564c-.482 0-.84.179-1.07.537S34.015 31.048 34 31.81v2.196c0 .812.171 1.415.4 1.81.23.395.6.592 1.107.592.502 0 .865-.189 1.088-.568.223-.378.395-.957.404-1.737V31.96zM17 33.748c0 1.376-.296 2.429-.889 3.158C15.518 37.636 14.65 38 13.507 38c-1.129 0-1.992-.357-2.59-1.073-.597-.716-.903-1.741-.917-3.076v-1.832c0-1.39.3-2.219.9-2.938S12.364 28 13.493 28c1.129 0 1.992.356 2.59 1.07.597.713.903 1.737.917 3.072V33.748zM15 31.96c0-.825-.173-1.427-.408-1.803-.234-.376-.601-.564-1.099-.564-.483 0-.84.179-1.07.537-.23.358-.408.918-.422 1.68v2.196c0 .812.171 1.415.401 1.81s.599.592 1.106.592c.502 0 .865-.189 1.088-.568.223-.378.395-.957.404-1.737V31.96zM28 20.748c0 1.376-.297 2.429-.889 3.158C26.518 24.636 25.65 25 24.507 25c-1.129 0-1.992-.357-2.59-1.073-.597-.716-.903-1.741-.917-3.076v-1.832c0-1.39.3-2.219.9-2.938S23.364 15 24.493 15s1.992.356 2.589 1.07c.598.713.904 1.737.918 3.072V20.748zM26 18.96c0-.825-.174-1.427-.408-1.803s-.601-.564-1.099-.564c-.483 0-.84.179-1.07.537-.23.358-.408.918-.422 1.68v2.196c0 .812.171 1.415.401 1.81s.599.592 1.106.592c.502 0 .866-.189 1.088-.568.223-.378.395-.957.404-1.737V18.96z"/></svg>